<svg xmlns="http://www.w3.org/2000/svg" xmlns:xlink="http://www.w3.org/1999/xlink" width="300" zoomAndPan="magnify" viewBox="0 0 224.87999 225" height="300" preserveAspectRatio="xMidYMid meet" version="1.0"><defs><g/><clipPath id="dd78a6ff9d"><path d="M 96 83.273438 L 120 83.273438 L 120 103 L 96 103 Z M 96 83.273438 " clip-rule="nonzero"/></clipPath><clipPath id="46362a7a71"><path d="M 76.53125 92.84375 L 148.347656 92.84375 L 148.347656 112.953125 L 76.53125 112.953125 Z M 76.53125 92.84375 " clip-rule="nonzero"/></clipPath></defs><g fill="#11324d" fill-opacity="1"><g transform="translate(82.879682, 134.016021)"><g><path d="M 8.265625 -5.671875 C 8.890625 -5.472656 9.378906 -5.15625 9.734375 -4.71875 C 10.085938 -4.289062 10.265625 -3.757812 10.265625 -3.125 C 10.265625 -2.070312 9.925781 -1.285156 9.25 -0.765625 C 8.570312 -0.253906 7.441406 0 5.859375 0 L 1.1875 0 L 1.1875 -11.1875 L 5.859375 -11.1875 C 7.296875 -11.1875 8.316406 -10.925781 8.921875 -10.40625 C 9.523438 -9.894531 9.828125 -9.15625 9.828125 -8.1875 C 9.828125 -7.570312 9.703125 -7.054688 9.453125 -6.640625 C 9.210938 -6.234375 8.816406 -5.910156 8.265625 -5.671875 Z M 3.828125 -6.65625 L 5.859375 -6.65625 C 6.703125 -6.65625 7.128906 -7.054688 7.140625 -7.859375 C 7.140625 -8.296875 7.035156 -8.609375 6.828125 -8.796875 C 6.628906 -8.992188 6.304688 -9.09375 5.859375 -9.09375 L 3.828125 -9.09375 Z M 7.578125 -3.328125 C 7.578125 -3.753906 7.429688 -4.066406 7.140625 -4.265625 C 6.859375 -4.460938 6.429688 -4.5625 5.859375 -4.5625 L 3.828125 -4.5625 L 3.828125 -2.09375 L 5.859375 -2.09375 C 6.484375 -2.09375 6.925781 -2.191406 7.1875 -2.390625 C 7.445312 -2.585938 7.578125 -2.898438 7.578125 -3.328125 Z M 7.578125 -3.328125 "/></g></g></g><g fill="#11324d" fill-opacity="1"><g transform="translate(93.884741, 134.016021)"><g><path d="M 6.703125 -4.328125 L 6.703125 0 L 4.09375 0 L 4.09375 -4.328125 L 0.296875 -11.1875 L 2.953125 -11.1875 L 5.40625 -6.6875 L 7.859375 -11.1875 L 10.515625 -11.1875 Z M 6.703125 -4.328125 "/></g></g></g><g fill="#11324d" fill-opacity="1"><g transform="translate(104.69802, 134.016021)"><g><path d="M 5.078125 -4.046875 L 3.828125 -4.046875 L 3.828125 0 L 1.1875 0 L 1.1875 -11.1875 L 5.703125 -11.1875 C 8.546875 -11.1875 9.96875 -9.988281 9.96875 -7.59375 C 9.96875 -5.894531 9.226562 -4.804688 7.75 -4.328125 L 10.40625 0 L 7.46875 0 Z M 3.828125 -6.28125 L 5.703125 -6.28125 C 6.753906 -6.28125 7.28125 -6.71875 7.28125 -7.59375 C 7.28125 -8.0625 7.148438 -8.398438 6.890625 -8.609375 C 6.640625 -8.828125 6.242188 -8.9375 5.703125 -8.9375 L 3.828125 -8.9375 Z M 3.828125 -6.28125 "/></g></g></g><g fill="#11324d" fill-opacity="1"><g transform="translate(115.629317, 134.016021)"><g><path d="M 5.125 -11.1875 C 7.164062 -11.1875 8.703125 -10.707031 9.734375 -9.75 C 10.773438 -8.800781 11.296875 -7.410156 11.296875 -5.578125 C 11.296875 -3.722656 10.78125 -2.328125 9.75 -1.390625 C 8.71875 -0.460938 7.175781 0 5.125 0 L 1.1875 0 L 1.1875 -11.1875 Z M 8.609375 -5.625 C 8.609375 -6.769531 8.320312 -7.609375 7.75 -8.140625 C 7.1875 -8.671875 6.3125 -8.9375 5.125 -8.9375 L 3.828125 -8.9375 L 3.828125 -2.234375 L 5.125 -2.234375 C 6.332031 -2.234375 7.210938 -2.5 7.765625 -3.03125 C 8.328125 -3.570312 8.609375 -4.4375 8.609375 -5.625 Z M 8.609375 -5.625 "/></g></g></g><g fill="#11324d" fill-opacity="1"><g transform="translate(127.445739, 134.016021)"><g><path d="M 1.1875 -11.1875 L 3.828125 -11.1875 L 3.828125 0 L 1.1875 0 Z M 1.1875 -11.1875 "/></g></g></g><g fill="#11324d" fill-opacity="1"><g transform="translate(132.461446, 134.016021)"><g><path d="M 8.640625 -2.125 L 8.640625 0 L 1.1875 0 L 1.1875 -11.1875 L 8.5625 -11.1875 L 8.5625 -9.0625 L 3.828125 -9.0625 L 3.828125 -6.6875 L 7.828125 -6.6875 L 7.828125 -4.5625 L 3.828125 -4.5625 L 3.828125 -2.125 Z M 8.640625 -2.125 "/></g></g></g><g fill="#11324d" fill-opacity="1"><g transform="translate(88.898266, 140.238115)"><g><path d="M 1.546875 0.0625 C 1.265625 0.0625 1.019531 0 0.8125 -0.125 C 0.613281 -0.25 0.460938 -0.421875 0.359375 -0.640625 C 0.253906 -0.867188 0.203125 -1.125 0.203125 -1.40625 C 0.203125 -1.675781 0.253906 -1.921875 0.359375 -2.140625 C 0.460938 -2.367188 0.613281 -2.546875 0.8125 -2.671875 C 1.019531 -2.804688 1.265625 -2.875 1.546875 -2.875 C 1.835938 -2.875 2.082031 -2.804688 2.28125 -2.671875 C 2.488281 -2.546875 2.640625 -2.367188 2.734375 -2.140625 C 2.835938 -1.921875 2.890625 -1.675781 2.890625 -1.40625 C 2.890625 -1.125 2.835938 -0.867188 2.734375 -0.640625 C 2.640625 -0.421875 2.488281 -0.25 2.28125 -0.125 C 2.082031 0 1.835938 0.0625 1.546875 0.0625 Z M 1.546875 -0.25 C 1.753906 -0.25 1.929688 -0.300781 2.078125 -0.40625 C 2.222656 -0.507812 2.332031 -0.644531 2.40625 -0.8125 C 2.488281 -0.988281 2.53125 -1.191406 2.53125 -1.421875 C 2.53125 -1.628906 2.488281 -1.816406 2.40625 -1.984375 C 2.332031 -2.160156 2.222656 -2.300781 2.078125 -2.40625 C 1.929688 -2.507812 1.753906 -2.5625 1.546875 -2.5625 C 1.335938 -2.5625 1.160156 -2.507812 1.015625 -2.40625 C 0.867188 -2.300781 0.757812 -2.160156 0.6875 -1.984375 C 0.613281 -1.816406 0.578125 -1.625 0.578125 -1.40625 C 0.578125 -1.1875 0.613281 -0.988281 0.6875 -0.8125 C 0.757812 -0.632812 0.867188 -0.492188 1.015625 -0.390625 C 1.160156 -0.296875 1.335938 -0.25 1.546875 -0.25 Z M 1.546875 -0.25 "/></g></g></g><g fill="#11324d" fill-opacity="1"><g transform="translate(93.685155, 140.238115)"><g><path d="M 2.546875 -2.8125 L 2.546875 0 L 2.140625 0 L 0.765625 -2.21875 L 0.765625 0 L 0.390625 0 L 0.390625 -2.8125 L 0.78125 -2.8125 L 2.171875 -0.609375 L 2.171875 -2.8125 Z M 2.546875 -2.8125 "/></g></g></g><g fill="#11324d" fill-opacity="1"><g transform="translate(98.300685, 140.238115)"><g/></g></g><g fill="#11324d" fill-opacity="1"><g transform="translate(100.79284, 140.238115)"><g><path d="M 2.203125 -2.5 L 1.359375 -2.5 L 1.359375 0 L 1 0 L 1 -2.5 L 0.15625 -2.5 L 0.15625 -2.8125 L 2.203125 -2.8125 Z M 2.203125 -2.5 "/></g></g></g><g fill="#11324d" fill-opacity="1"><g transform="translate(104.827233, 140.238115)"><g><path d="M 2.546875 -2.8125 L 2.546875 0 L 2.171875 0 L 2.171875 -1.25 L 0.765625 -1.25 L 0.765625 0 L 0.390625 0 L 0.390625 -2.8125 L 0.765625 -2.8125 L 0.765625 -1.578125 L 2.171875 -1.578125 L 2.171875 -2.8125 Z M 2.546875 -2.8125 "/></g></g></g><g fill="#11324d" fill-opacity="1"><g transform="translate(109.442763, 140.238115)"><g><path d="M 2.125 -0.3125 L 2.125 0 L 0.390625 0 L 0.390625 -2.8125 L 2.109375 -2.8125 L 2.109375 -2.5 L 0.765625 -2.5 L 0.765625 -1.578125 L 1.921875 -1.578125 L 1.921875 -1.265625 L 0.765625 -1.265625 L 0.765625 -0.3125 Z M 2.125 -0.3125 "/></g></g></g><g fill="#11324d" fill-opacity="1"><g transform="translate(113.465981, 140.238115)"><g/></g></g><g fill="#11324d" fill-opacity="1"><g transform="translate(115.958137, 140.238115)"><g><path d="M 1.3125 -1.1875 L 0.765625 -1.1875 L 0.765625 0 L 0.390625 0 L 0.390625 -2.8125 L 1.390625 -2.8125 C 2.003906 -2.8125 2.3125 -2.539062 2.3125 -2 C 2.3125 -1.78125 2.257812 -1.601562 2.15625 -1.46875 C 2.050781 -1.34375 1.894531 -1.257812 1.6875 -1.21875 L 2.4375 0 L 2.03125 0 Z M 0.765625 -1.515625 L 1.390625 -1.515625 C 1.753906 -1.515625 1.9375 -1.675781 1.9375 -2 C 1.9375 -2.175781 1.890625 -2.300781 1.796875 -2.375 C 1.703125 -2.457031 1.566406 -2.5 1.390625 -2.5 L 0.765625 -2.5 Z M 0.765625 -1.515625 "/></g></g></g><g fill="#11324d" fill-opacity="1"><g transform="translate(120.260747, 140.238115)"><g><path d="M 1.546875 0.0625 C 1.265625 0.0625 1.019531 0 0.8125 -0.125 C 0.613281 -0.25 0.460938 -0.421875 0.359375 -0.640625 C 0.253906 -0.867188 0.203125 -1.125 0.203125 -1.40625 C 0.203125 -1.675781 0.253906 -1.921875 0.359375 -2.140625 C 0.460938 -2.367188 0.613281 -2.546875 0.8125 -2.671875 C 1.019531 -2.804688 1.265625 -2.875 1.546875 -2.875 C 1.835938 -2.875 2.082031 -2.804688 2.28125 -2.671875 C 2.488281 -2.546875 2.640625 -2.367188 2.734375 -2.140625 C 2.835938 -1.921875 2.890625 -1.675781 2.890625 -1.40625 C 2.890625 -1.125 2.835938 -0.867188 2.734375 -0.640625 C 2.640625 -0.421875 2.488281 -0.25 2.28125 -0.125 C 2.082031 0 1.835938 0.0625 1.546875 0.0625 Z M 1.546875 -0.25 C 1.753906 -0.25 1.929688 -0.300781 2.078125 -0.40625 C 2.222656 -0.507812 2.332031 -0.644531 2.40625 -0.8125 C 2.488281 -0.988281 2.53125 -1.191406 2.53125 -1.421875 C 2.53125 -1.628906 2.488281 -1.816406 2.40625 -1.984375 C 2.332031 -2.160156 2.222656 -2.300781 2.078125 -2.40625 C 1.929688 -2.507812 1.753906 -2.5625 1.546875 -2.5625 C 1.335938 -2.5625 1.160156 -2.507812 1.015625 -2.40625 C 0.867188 -2.300781 0.757812 -2.160156 0.6875 -1.984375 C 0.613281 -1.816406 0.578125 -1.625 0.578125 -1.40625 C 0.578125 -1.1875 0.613281 -0.988281 0.6875 -0.8125 C 0.757812 -0.632812 0.867188 -0.492188 1.015625 -0.390625 C 1.160156 -0.296875 1.335938 -0.25 1.546875 -0.25 Z M 1.546875 -0.25 "/></g></g></g><g fill="#11324d" fill-opacity="1"><g transform="translate(125.047636, 140.238115)"><g><path d="M 1.59375 0.0625 C 1.289062 0.0625 1.035156 0.00390625 0.828125 -0.109375 C 0.617188 -0.234375 0.460938 -0.40625 0.359375 -0.625 C 0.253906 -0.851562 0.203125 -1.113281 0.203125 -1.40625 C 0.203125 -1.6875 0.253906 -1.9375 0.359375 -2.15625 C 0.460938 -2.375 0.617188 -2.546875 0.828125 -2.671875 C 1.035156 -2.804688 1.289062 -2.875 1.59375 -2.875 C 1.71875 -2.875 1.832031 -2.863281 1.9375 -2.84375 C 2.039062 -2.820312 2.148438 -2.785156 2.265625 -2.734375 L 2.265625 -2.40625 C 2.054688 -2.507812 1.832031 -2.5625 1.59375 -2.5625 C 1.382812 -2.5625 1.203125 -2.507812 1.046875 -2.40625 C 0.898438 -2.3125 0.785156 -2.175781 0.703125 -2 C 0.617188 -1.820312 0.578125 -1.625 0.578125 -1.40625 C 0.578125 -1.175781 0.613281 -0.972656 0.6875 -0.796875 C 0.769531 -0.628906 0.882812 -0.492188 1.03125 -0.390625 C 1.1875 -0.296875 1.375 -0.25 1.59375 -0.25 C 1.71875 -0.25 1.84375 -0.265625 1.96875 -0.296875 C 2.101562 -0.335938 2.238281 -0.394531 2.375 -0.46875 L 2.5 -0.15625 C 2.351562 -0.0820312 2.195312 -0.03125 2.03125 0 C 1.875 0.0390625 1.726562 0.0625 1.59375 0.0625 Z M 1.59375 0.0625 "/></g></g></g><g fill="#11324d" fill-opacity="1"><g transform="translate(129.350247, 140.238115)"><g><path d="M 0.953125 -1.265625 L 0.765625 -1.0625 L 0.765625 0 L 0.390625 0 L 0.390625 -2.8125 L 0.765625 -2.8125 L 0.765625 -1.5625 L 1.953125 -2.8125 L 2.40625 -2.8125 L 1.203125 -1.53125 L 2.4375 0 L 1.96875 0 Z M 0.953125 -1.265625 "/></g></g></g><g fill="#11324d" fill-opacity="1"><g transform="translate(133.58208, 140.238115)"><g><path d="M 1.203125 0.0625 C 0.835938 0.0625 0.515625 -0.00390625 0.234375 -0.140625 L 0.234375 -0.484375 C 0.515625 -0.328125 0.835938 -0.25 1.203125 -0.25 C 1.398438 -0.25 1.546875 -0.289062 1.640625 -0.375 C 1.742188 -0.46875 1.796875 -0.582031 1.796875 -0.71875 C 1.796875 -0.851562 1.75 -0.953125 1.65625 -1.015625 C 1.570312 -1.085938 1.441406 -1.148438 1.265625 -1.203125 L 1.015625 -1.265625 C 0.867188 -1.304688 0.742188 -1.351562 0.640625 -1.40625 C 0.546875 -1.46875 0.460938 -1.550781 0.390625 -1.65625 C 0.328125 -1.757812 0.296875 -1.894531 0.296875 -2.0625 C 0.296875 -2.320312 0.375 -2.519531 0.53125 -2.65625 C 0.6875 -2.800781 0.90625 -2.875 1.1875 -2.875 C 1.351562 -2.875 1.5 -2.859375 1.625 -2.828125 C 1.75 -2.796875 1.878906 -2.75 2.015625 -2.6875 L 2.015625 -2.34375 C 1.765625 -2.488281 1.488281 -2.5625 1.1875 -2.5625 C 1 -2.5625 0.863281 -2.515625 0.78125 -2.421875 C 0.695312 -2.335938 0.65625 -2.222656 0.65625 -2.078125 C 0.65625 -1.941406 0.695312 -1.835938 0.78125 -1.765625 C 0.863281 -1.703125 0.988281 -1.648438 1.15625 -1.609375 L 1.421875 -1.53125 C 1.566406 -1.488281 1.691406 -1.4375 1.796875 -1.375 C 1.898438 -1.320312 1.984375 -1.242188 2.046875 -1.140625 C 2.117188 -1.035156 2.15625 -0.898438 2.15625 -0.734375 C 2.15625 -0.484375 2.066406 -0.285156 1.890625 -0.140625 C 1.722656 -0.00390625 1.492188 0.0625 1.203125 0.0625 Z M 1.203125 0.0625 "/></g></g></g><g clip-path="url(#dd78a6ff9d)"><path fill="#ffd09b" d="M 108.304688 83.273438 C 101.902344 83.273438 96.714844 88.460938 96.714844 94.863281 C 96.714844 97.941406 97.914062 100.738281 99.871094 102.8125 L 107.777344 97.433594 L 109.867188 100.777344 L 119.777344 93.210938 C 118.972656 87.59375 114.144531 83.273438 108.304688 83.273438 " fill-opacity="1" fill-rule="nonzero"/></g><g clip-path="url(#46362a7a71)"><path fill="#11324d" d="M 76.53125 112.953125 L 94.339844 103.058594 L 96.886719 106.027344 L 107.488281 98.820312 L 109.605469 102.210938 L 121.820312 92.882812 L 132.503906 104.472656 L 134.371094 101.648438 L 148.347656 112.953125 L 137.019531 107.160156 L 137.019531 111.070312 L 122.101562 104.757812 L 121.820312 98.539062 L 113.707031 108.289062 L 114.566406 102.496094 L 110.3125 107.726562 L 108.191406 102.917969 L 101.972656 108.855469 L 104.800781 111.070312 L 96.179688 108.148438 L 96.179688 110.578125 L 93.070312 106.875 L 86.003906 112.105469 L 86.003906 109.703125 L 76.53125 112.953125 " fill-opacity="1" fill-rule="nonzero"/></g></svg>